#N canvas 0 15 610 716 10;
#X obj 68 25 inlet;
#X obj 67 111 spigot 1;
#X obj 201 115 spigot;
#X msg 163 154 1;
#X obj 67 264 outlet;
#X msg 222 29 0;
#X msg 315 152 0;
#X msg 369 155 1;
#X obj 201 265 outlet;
#X obj 252 119 f;
#X obj 208 82 1;
#X obj 285 15 inlet;
#X obj 307 62 t b;
#X obj 253 202 t b b;
#X obj 201 160 t a b;
#X obj 67 135 t a b b;
#X obj 67 47 t a b b;
#X text 55 304 Alternate incoming msgs between 2 outputs \, starting
at left output. Right input resets.;
#X connect 0 0 16 0;
#X connect 1 0 15 0;
#X connect 2 0 14 0;
#X connect 3 0 9 1;
#X connect 5 0 10 1;
#X connect 6 0 9 1;
#X connect 7 0 10 1;
#X connect 9 0 2 1;
#X connect 10 0 1 1;
#X connect 11 0 12 0;
#X connect 12 0 13 0;
#X connect 13 0 6 0;
#X connect 13 1 7 0;
#X connect 14 0 8 0;
#X connect 14 1 13 0;
#X connect 15 0 4 0;
#X connect 15 1 5 0;
#X connect 15 2 3 0;
#X connect 16 0 1 0;
#X connect 16 0 2 0;
#X connect 16 1 9 0;
#X connect 16 2 10 0;
