#N canvas 0 15 610 716 10;
#X obj 205 267 adc~;
#X obj 160 188 bng 15 250 50 0 empty empty empty 0 -6 0 10 -262144
-1 -1;
#X obj 205 318 tabwrite~ \$0-test;
#X obj 347 328 print;
#X msg 346 256 1;
#N canvas 0 15 610 716 findclosest 0;
#X obj 182 7 inlet;
#X obj 57 87 list;
#X obj 136 344 select 1;
#X obj 136 184 t a a;
#X obj 136 395 f;
#X obj 136 234 abs;
#X obj 136 309 <=;
#X text 212 220 distance;
#N canvas 184 160 450 300 once 0;
#X obj 96 67 inlet;
#X obj 96 189 outlet;
#X obj 96 137 spigot 1;
#X obj 164 67 inlet;
#X msg 164 100 1;
#X msg 162 137 0;
#X obj 96 160 t a b;
#X connect 0 0 2 0;
#X connect 2 0 6 0;
#X connect 3 0 4 0;
#X connect 4 0 2 1;
#X connect 5 0 2 1;
#X connect 6 0 1 0;
#X connect 6 1 5 0;
#X restore 180 280 pd once;
#X obj 136 211 - 45;
#X obj 136 259 t a a a;
#X obj 168 310 f;
#X text 243 280 first comparison with first value;
#X obj 114 134 t b a b;
#X obj 114 427 f;
#N canvas 472 435 450 300 list-drip 0;
#X obj 102 44 inlet;
#X obj 102 128 list;
#X obj 102 153 list split 1;
#X obj 102 70 t b a;
#X obj 102 100 until;
#X obj 181 176 b;
#X obj 102 179 outlet;
#X connect 0 0 3 0;
#X connect 1 0 2 0;
#X connect 2 0 6 0;
#X connect 2 1 1 1;
#X connect 2 2 5 0;
#X connect 3 0 4 0;
#X connect 3 1 1 1;
#X connect 4 0 1 0;
#X connect 5 0 4 1;
#X restore 136 162 pd list-drip;
#X obj 242 12 inlet;
#X obj 182 63 t b a;
#X obj 114 454 outlet;
#X obj 57 106 route bang;
#X obj 57 309 f;
#X connect 0 0 17 0;
#X connect 1 0 19 0;
#X connect 2 0 4 0;
#X connect 2 0 11 0;
#X connect 3 0 9 0;
#X connect 3 1 4 1;
#X connect 4 0 14 1;
#X connect 5 0 10 0;
#X connect 6 0 2 0;
#X connect 8 0 6 1;
#X connect 9 0 5 0;
#X connect 10 0 6 0;
#X connect 10 1 11 1;
#X connect 10 2 8 0;
#X connect 11 0 6 1;
#X connect 13 0 14 0;
#X connect 13 1 15 0;
#X connect 13 2 8 1;
#X connect 14 0 18 0;
#X connect 15 0 3 0;
#X connect 16 0 1 1;
#X connect 17 0 1 0;
#X connect 17 1 9 1;
#X connect 17 1 20 1;
#X connect 19 0 20 0;
#X connect 19 1 13 0;
#X connect 20 0 18 0;
#X restore 141 381 pd findclosest;
#X obj 92 261 bonk~;
#X obj 59 303 bng 15 250 50 0 empty empty empty 0 -6 0 10 -262144 -1
-1;
#X obj 141 354 / 10000;
#X obj 98 290 bang;
#X obj 117 315 random 10000;
#X obj 141 599 dac~;
#X obj 139 513 tabplay~ \$0-test;
#X obj 141 453 alternera;
#X obj 162 493 1;
#X obj 142 474 t f b b;
#X obj 187 493 0;
#X obj 269 513 tabplay~ \$0-test;
#X obj 292 493 1;
#X obj 272 474 t f b b;
#X obj 317 493 0;
#X obj 268 546 volctl~ 0 3;
#X obj 138 546 volctl~ 0 3;
#X obj 142 430 speedlim 6;
#X obj 331 69 table \$0-test 4.8e+06;
#X obj 205 290 rec_onset_detector 100000;
#X obj 142 405 * 4.8e+06;
#X obj 180 235 metro 100000;
#X connect 0 0 6 0;
#X connect 0 0 25 0;
#X connect 1 0 27 0;
#X connect 4 0 25 2;
#X connect 5 0 26 0;
#X connect 6 0 7 0;
#X connect 8 0 5 0;
#X connect 9 0 10 0;
#X connect 10 0 8 0;
#X connect 12 0 22 0;
#X connect 13 0 15 0;
#X connect 13 1 19 0;
#X connect 14 0 22 1;
#X connect 15 0 12 0;
#X connect 15 1 14 0;
#X connect 15 2 16 0;
#X connect 16 0 21 1;
#X connect 17 0 21 0;
#X connect 18 0 21 1;
#X connect 19 0 17 0;
#X connect 19 1 18 0;
#X connect 19 2 20 0;
#X connect 20 0 22 1;
#X connect 21 0 11 1;
#X connect 21 0 11 0;
#X connect 22 0 11 0;
#X connect 22 0 11 1;
#X connect 23 0 13 0;
#X connect 25 0 2 0;
#X connect 25 1 5 1;
#X connect 25 1 9 0;
#X connect 26 0 23 0;
#X connect 27 0 2 0;
#X connect 27 0 25 1;
