#N canvas 0 15 610 716 10;
#X obj 81 156 inlet;
#X obj 218 142 inlet;
#X obj 155 282 outlet;
#X obj 151 225 spigot;
#X obj 126 200 == 0;
#X obj 81 225 spigot 1;
#X obj 81 275 outlet;
#X text 303 226 sends msg either to left (0) or right (1);
#X obj 146 107 loadbang;
#X obj 145 128 f \$1;
#X connect 0 0 5 0;
#X connect 0 0 3 0;
#X connect 1 0 4 0;
#X connect 1 0 3 1;
#X connect 3 0 2 0;
#X connect 4 0 5 1;
#X connect 5 0 6 0;
#X connect 8 0 9 0;
#X connect 9 0 4 0;
#X connect 9 0 3 1;
