#N canvas 0 15 622 718 10;
#X obj 81 156 inlet;
#X obj 243 98 inlet;
#X obj 155 282 outlet;
#X obj 151 225 spigot;
#X obj 126 200 == 0;
#X obj 81 225 spigot 1;
#X obj 81 275 outlet;
#X obj 145 71 loadbang;
#X obj 145 128 f \$1;
#X text 302 226 sends msg either to left (0) or right (1) switch with
bang in right inlet;
#X obj 184 128 + 1;
#X obj 214 129 mod 2;
#X obj 293 290 outlet;
#X connect 0 0 5 0;
#X connect 0 0 3 0;
#X connect 1 0 8 0;
#X connect 3 0 2 0;
#X connect 4 0 5 1;
#X connect 5 0 6 0;
#X connect 7 0 8 0;
#X connect 8 0 4 0;
#X connect 8 0 3 1;
#X connect 8 0 10 0;
#X connect 8 0 12 0;
#X connect 10 0 11 0;
#X connect 11 0 8 1;
