#N canvas 0 15 610 716 10;
#X obj 299 122 inlet;
#X obj 307 164 route 1 0;
#X obj 222 209 t b b;
#X obj 241 235 1;
#X msg 320 228 stop;
#X obj 236 288 0;
#X obj 258 325 change;
#X obj 173 349 outlet;
#X obj 262 260 delay 15;
#X connect 0 0 1 0;
#X connect 1 0 2 0;
#X connect 1 1 8 0;
#X connect 2 0 3 0;
#X connect 2 1 4 0;
#X connect 3 0 6 0;
#X connect 4 0 8 0;
#X connect 5 0 6 0;
#X connect 6 0 7 0;
#X connect 8 0 5 0;
