#N canvas 0 15 610 716 10;
#X msg 317 197 \$2 \$1;
#X obj 318 239 sel 1;
#X obj 263 479 f;
#X obj 287 480 + 0.1;
#X obj 314 356 temperature 500;
#X obj 314 377 mavg 5;
#X obj 314 398 / 10;
#X obj 317 175 inlet;
#X obj 315 527 outlet;
#X obj 423 450 inlet;
#X obj 313 425 * 1;
#X obj 356 239 sel 1;
#X obj 294 269 t b b b;
#X obj 354 269 t b b b;
#X obj 318 218 route \$1 \$2;
#X obj 333 294 0.05;
#X obj 393 294 -0.05;
#X connect 0 0 14 0;
#X connect 1 0 12 0;
#X connect 2 0 3 0;
#X connect 3 0 8 0;
#X connect 4 0 5 0;
#X connect 5 0 6 0;
#X connect 6 0 10 0;
#X connect 7 0 0 0;
#X connect 9 0 2 1;
#X connect 10 0 3 1;
#X connect 11 0 13 0;
#X connect 12 0 2 0;
#X connect 12 1 4 0;
#X connect 12 2 15 0;
#X connect 13 0 2 0;
#X connect 13 1 4 0;
#X connect 13 2 16 0;
#X connect 14 0 1 0;
#X connect 14 1 11 0;
#X connect 15 0 10 1;
#X connect 16 0 10 1;
