#N canvas 0 15 610 716 10;
#N canvas 0 15 610 749 1046-cnv 0;
#X obj 130 13 cnv 15 100 60 empty \$0-trap 1--0 20 16 0 22 -233017
-66577 0;
#X restore 577 53 pd \$0-cnv;
#X obj 576 34 import toxy;
#X obj 423 122 tot \$0-cnv;
#X obj 38 18 inlet;
#X obj 38 70 route bang open close;
#X obj 36 224 symbol \$0-cnv;
#N canvas 0 15 610 716 tgl 0;
#X obj 104 78 inlet;
#X obj 108 155 0;
#X obj 170 74 inlet;
#X obj 104 192 outlet;
#X obj 231 77 inlet;
#X obj 144 93 1;
#X obj 230 99 0;
#X obj 211 156 mod 2;
#X obj 146 160 + 1;
#X connect 0 0 1 0;
#X connect 1 0 3 0;
#X connect 1 0 8 0;
#X connect 2 0 5 0;
#X connect 4 0 6 0;
#X connect 5 0 1 0;
#X connect 6 0 1 0;
#X connect 7 0 1 1;
#X connect 8 0 7 0;
#X restore 33 154 pd tgl;
#X obj 36 252 makefilename pd-%s;
#X obj 35 277 pack s f;
#X obj 33 200 t b a;
#X msg 423 93 tot bind .^.c <Button-3> "" \, tot destroy .^.m \, capture
1;
#X obj 33 177 t a a;
#X obj 251 123 sel 1;
#X obj 468 273 outlet;
#X msg 36 304 \; \$1 vis \$2;
#X obj 247 145 delay 100;
#X obj 461 191 route mouse mouseup;
#X obj 357 280 s \$0-trap;
#X obj 358 226 l2s --;
#X msg 360 251 label \$1;
#X msg 464 215 \$3 1;
#X msg 514 215 \$3 0;
#X obj 613 189 route key;
#X obj 626 231 outlet;
#X obj 132 109 route float;
#X connect 2 2 16 0;
#X connect 3 0 4 0;
#X connect 4 0 6 0;
#X connect 4 1 6 1;
#X connect 4 2 6 2;
#X connect 4 3 24 0;
#X connect 5 0 7 0;
#X connect 6 0 11 0;
#X connect 7 0 8 0;
#X connect 8 0 14 0;
#X connect 9 0 5 0;
#X connect 9 1 8 1;
#X connect 10 0 2 0;
#X connect 11 0 12 0;
#X connect 11 1 9 0;
#X connect 12 0 15 0;
#X connect 15 0 10 0;
#X connect 16 0 20 0;
#X connect 16 1 21 0;
#X connect 16 2 22 0;
#X connect 18 0 19 0;
#X connect 19 0 17 0;
#X connect 20 0 13 0;
#X connect 20 0 18 0;
#X connect 21 0 13 0;
#X connect 21 0 18 0;
#X connect 22 0 23 0;
#X connect 24 0 6 0;
