#N canvas 101 11 658 734 10;
#X obj 79 19 inlet msgs;
#X obj 321 -5 inlet position;
#X obj 491 111 loadbang;
#X obj 119 629 outlet~;
#X obj 105 107 outlet;
#X msg 104 87 getpos;
#X obj 19 497 switch~;
#X obj 459 311 sprintf %d-%s;
#X obj 459 331 symbol;
#X obj 491 136 t b b;
#X obj 504 224 symbol \$1;
#X obj 335 206 + 1;
#X obj 335 227 mod \$2;
#X obj 335 187 0;
#X obj 459 290 pack f s;
#X obj 120 525 *~;
#X obj 145 527 line~;
#X obj 145 545 *~;
#X obj 146 566 *~;
#X msg 122 159 stop;
#X obj 123 136 route 0;
#N canvas 0 15 610 716 calc_p_factor 0;
#X obj 175 36 inlet;
#X obj 175 61 < 0;
#X obj 176 88 sel 0 1;
#X obj 175 107 1;
#X obj 198 127 -1;
#X obj 201 157 outlet;
#X connect 0 0 1 0;
#X connect 1 0 2 0;
#X connect 2 0 3 0;
#X connect 2 1 4 0;
#X connect 3 0 5 0;
#X connect 4 0 5 0;
#X restore 377 177 pd calc_p_factor;
#X obj 299 159 t b f;
#X msg 301 178 0;
#X obj 246 303 f;
#X obj 421 248 t f f;
#X obj 247 323 pack f s;
#N canvas 0 15 796 734 tabreads 0;
#X obj 169 106 t l l;
#X msg 206 131 set \$2;
#X obj 73 318 *~;
#X obj 69 125 inlet~;
#X obj 314 54 inlet;
#X obj 65 221 tabread4~;
#X obj 230 199 tabread4~;
#X obj 332 234 t l l;
#X msg 399 269 set \$2;
#X obj 167 387 *~;
#X obj 78 443 outlet~;
#X msg 347 284 0 0;
#X msg 331 262 1 0;
#X msg 188 161 0 0;
#X msg 168 134 1 0;
#X obj 160 277 vline~;
#X obj 291 202 vline~;
#X obj 358 132 alternera;
#X connect 0 0 14 0;
#X connect 0 0 13 0;
#X connect 0 1 1 0;
#X connect 1 0 5 0;
#X connect 2 0 10 0;
#X connect 3 0 5 0;
#X connect 3 0 6 0;
#X connect 4 0 17 0;
#X connect 5 0 2 0;
#X connect 6 0 9 0;
#X connect 7 0 12 0;
#X connect 7 0 11 0;
#X connect 7 1 8 0;
#X connect 8 0 6 0;
#X connect 9 0 10 0;
#X connect 11 0 15 0;
#X connect 12 0 16 0;
#X connect 13 0 16 0;
#X connect 14 0 15 0;
#X connect 15 0 2 1;
#X connect 16 0 9 1;
#X connect 17 0 0 0;
#X connect 17 1 7 0;
#X restore 130 348 pd tabreads;
#X obj 476 408 inlet fadetime;
#X obj 246 263 delay;
#X obj 246 283 t b b;
#X obj 131 216 playerengine3 \$3 0.9;
#X obj 131 316 t3_line~;
#X obj 323 65 list split 2;
#X obj 79 66 t b b;
#X obj 79 44 route play stop pitch vol;
#X obj 19 475 switchdelay 2000;
#X obj 190 525 *~;
#X obj 251 551 line~;
#X obj 251 569 *~;
#X obj 252 590 *~;
#X obj 248 440 list 5;
#N canvas 0 15 788 734 tabreads 0;
#X obj 169 106 t l l;
#X msg 206 131 set \$2;
#X obj 73 318 *~;
#X obj 69 125 inlet~;
#X obj 314 54 inlet;
#X obj 65 221 tabread4~;
#X obj 230 199 tabread4~;
#X obj 332 234 t l l;
#X msg 399 269 set \$2;
#X obj 167 387 *~;
#X obj 78 443 outlet~;
#X msg 347 284 0 0;
#X msg 331 262 1 0;
#X msg 188 161 0 0;
#X msg 168 134 1 0;
#X obj 160 277 vline~;
#X obj 291 202 vline~;
#X obj 358 132 alternera;
#X connect 0 0 14 0;
#X connect 0 0 13 0;
#X connect 0 1 1 0;
#X connect 1 0 5 0;
#X connect 2 0 10 0;
#X connect 3 0 5 0;
#X connect 3 0 6 0;
#X connect 4 0 17 0;
#X connect 5 0 2 0;
#X connect 6 0 9 0;
#X connect 7 0 12 0;
#X connect 7 0 11 0;
#X connect 7 1 8 0;
#X connect 8 0 6 0;
#X connect 9 0 10 0;
#X connect 11 0 15 0;
#X connect 12 0 16 0;
#X connect 13 0 16 0;
#X connect 14 0 15 0;
#X connect 15 0 2 1;
#X connect 16 0 9 1;
#X connect 17 0 0 0;
#X connect 17 1 7 0;
#X restore 188 397 pd tabreads;
#X obj 247 369 either;
#X obj 248 479 either;
#X msg 248 460 \$1 \$2;
#X obj 53 414 0;
#X obj 12 427 1;
#N canvas 0 0 597 410 sel 0;
#X obj 139 29 inlet;
#X obj 140 54 t a a;
#X obj 167 76 unpack f f;
#X obj 165 127 t b b;
#X obj 165 159 timer;
#X obj 164 182 <;
#X obj 138 206 either;
#X obj 166 101 sel 1;
#X msg 155 230 0 3 \, \$1 \$2 3;
#X obj 136 267 outlet;
#X obj 221 296 outlet;
#X obj 219 273 * 3;
#X connect 0 0 1 0;
#X connect 1 0 6 0;
#X connect 1 1 2 0;
#X connect 2 0 7 0;
#X connect 2 1 5 1;
#X connect 3 0 4 0;
#X connect 3 1 4 1;
#X connect 4 0 5 0;
#X connect 5 0 6 1;
#X connect 6 0 9 0;
#X connect 6 1 8 0;
#X connect 6 2 11 0;
#X connect 7 0 3 0;
#X connect 7 1 6 1;
#X connect 8 0 9 0;
#X connect 11 0 10 0;
#X restore 264 504 pd sel;
#N canvas 0 0 585 398 sel 0;
#X obj 139 29 inlet;
#X obj 140 54 t a a;
#X obj 167 76 unpack f f;
#X obj 165 127 t b b;
#X obj 165 159 timer;
#X obj 164 182 <;
#X obj 138 206 either;
#X obj 166 101 sel 1;
#X msg 155 230 0 3 \, \$1 \$2 3;
#X obj 136 267 outlet;
#X obj 221 296 outlet;
#X obj 219 273 * 3;
#X connect 0 0 1 0;
#X connect 1 0 6 0;
#X connect 1 1 2 0;
#X connect 2 0 7 0;
#X connect 2 1 5 1;
#X connect 3 0 4 0;
#X connect 3 1 4 1;
#X connect 4 0 5 0;
#X connect 5 0 6 1;
#X connect 6 0 9 0;
#X connect 6 1 8 0;
#X connect 6 2 11 0;
#X connect 7 0 3 0;
#X connect 7 1 6 1;
#X connect 8 0 9 0;
#X connect 11 0 10 0;
#X restore 152 507 pd sel;
#X obj 85 413 t b f;
#X obj 131 275 either;
#X obj 191 316 t3_line~;
#X connect 0 0 35 0;
#X connect 1 0 33 0;
#X connect 2 0 9 0;
#X connect 5 0 4 0;
#X connect 7 0 8 0;
#X connect 8 0 26 1;
#X connect 9 1 10 0;
#X connect 10 0 14 1;
#X connect 11 0 12 0;
#X connect 12 0 13 1;
#X connect 13 0 11 0;
#X connect 13 0 25 0;
#X connect 14 0 7 0;
#X connect 15 0 3 0;
#X connect 16 0 17 0;
#X connect 16 0 17 1;
#X connect 17 0 18 0;
#X connect 17 0 18 1;
#X connect 18 0 15 1;
#X connect 19 0 31 0;
#X connect 20 0 19 0;
#X connect 21 0 11 1;
#X connect 22 0 23 0;
#X connect 22 1 12 0;
#X connect 23 0 24 1;
#X connect 24 0 26 0;
#X connect 25 0 14 0;
#X connect 26 0 43 0;
#X connect 27 0 15 0;
#X connect 28 0 36 1;
#X connect 28 0 41 1;
#X connect 29 0 30 0;
#X connect 30 0 24 0;
#X connect 30 1 13 0;
#X connect 31 0 51 0;
#X connect 31 1 29 0;
#X connect 32 0 27 0;
#X connect 33 0 31 0;
#X connect 33 1 22 0;
#X connect 34 0 47 0;
#X connect 34 1 5 0;
#X connect 35 0 34 0;
#X connect 35 1 46 0;
#X connect 35 2 21 0;
#X connect 35 2 31 1;
#X connect 35 3 47 1;
#X connect 36 0 6 0;
#X connect 36 0 20 0;
#X connect 37 0 3 0;
#X connect 38 0 39 0;
#X connect 38 0 39 1;
#X connect 39 0 40 0;
#X connect 39 0 40 1;
#X connect 40 0 37 1;
#X connect 41 0 45 0;
#X connect 42 0 37 0;
#X connect 43 0 27 1;
#X connect 43 1 42 1;
#X connect 43 2 44 1;
#X connect 43 2 51 1;
#X connect 44 0 49 0;
#X connect 44 1 48 0;
#X connect 45 0 44 0;
#X connect 46 0 36 0;
#X connect 46 0 50 0;
#X connect 47 0 36 0;
#X connect 47 0 41 0;
#X connect 48 0 38 0;
#X connect 49 0 16 0;
#X connect 50 0 43 1;
#X connect 50 1 41 0;
#X connect 51 0 32 0;
#X connect 51 1 52 0;
#X connect 52 0 42 0;
