#N canvas 0 15 618 703 10;
#X obj 79 19 inlet msgs;
#X obj 321 -5 inlet position;
#X obj 491 111 loadbang;
#X obj 107 513 outlet~;
#X obj 105 107 outlet;
#X msg 104 87 getpos;
#X obj 19 497 switch~;
#X obj 459 311 sprintf %d-%s;
#X obj 459 331 symbol;
#X obj 491 136 t b b;
#X obj 504 224 symbol \$1;
#X obj 335 206 + 1;
#X obj 335 227 mod \$2;
#X obj 335 187 0;
#X obj 459 290 pack f s;
#X obj 120 472 *~;
#X obj 166 475 line~;
#X obj 166 493 *~;
#X obj 167 514 *~;
#X obj 58 413 0;
#X obj 12 427 1;
#X msg 122 159 stop;
#X obj 123 136 route 0;
#N canvas 0 15 610 716 calc_p_factor 0;
#X obj 175 36 inlet;
#X obj 175 61 < 0;
#X obj 176 88 sel 0 1;
#X obj 175 107 1;
#X obj 198 127 -1;
#X obj 201 157 outlet;
#X connect 0 0 1 0;
#X connect 1 0 2 0;
#X connect 2 0 3 0;
#X connect 2 1 4 0;
#X connect 3 0 5 0;
#X connect 4 0 5 0;
#X restore 377 177 pd calc_p_factor;
#X obj 299 159 t b f;
#X msg 301 178 0;
#X obj 248 311 f;
#X obj 167 368 spigot;
#X obj 421 248 t f f;
#X obj 363 286 mod 2;
#X obj 373 324 == 0;
#X obj 342 353 spigot;
#X obj 210 337 pack f s;
#N canvas 0 15 764 716 tabreads 0;
#X obj 169 106 t l l;
#X msg 206 131 set \$2;
#X obj 73 318 *~;
#X obj 69 125 inlet~;
#X obj 308 117 inlet;
#X obj 444 167 inlet;
#X obj 65 221 tabread4~;
#X obj 230 199 tabread4~;
#X obj 332 234 t l l;
#X msg 399 269 set \$2;
#X obj 333 378 *~;
#X obj 78 443 outlet~;
#X msg 347 284 0 0;
#X msg 331 262 1 0;
#X msg 188 161 0 0;
#X msg 168 134 1 0;
#X obj 160 277 vline~;
#X obj 291 202 vline~;
#X connect 0 0 15 0;
#X connect 0 0 14 0;
#X connect 0 1 1 0;
#X connect 1 0 6 0;
#X connect 2 0 11 0;
#X connect 3 0 6 0;
#X connect 3 0 7 0;
#X connect 4 0 0 0;
#X connect 5 0 8 0;
#X connect 6 0 2 0;
#X connect 7 0 10 0;
#X connect 8 0 13 0;
#X connect 8 0 12 0;
#X connect 8 1 9 0;
#X connect 9 0 7 0;
#X connect 10 0 11 0;
#X connect 12 0 16 0;
#X connect 13 0 17 0;
#X connect 14 0 17 0;
#X connect 15 0 16 0;
#X connect 16 0 2 1;
#X connect 17 0 10 1;
#X restore 131 399 pd tabreads;
#X floatatom 254 152 5 0 0 0 - - -;
#X obj 166 452 pack f 5;
#X obj 466 416 inlet fadetime;
#X obj 246 263 delay;
#X obj 246 283 t b b;
#X obj 365 262 print;
#X obj 131 216 playerengine3 \$3 0.9;
#X obj 131 269 t3_line~;
#X obj 323 65 list split 2;
#X obj 373 33 print;
#X obj 277 308 bng 15 250 50 0 empty empty empty 0 -6 0 10 -262144
-1 -1;
#X obj 79 66 t b b;
#X obj 79 44 route play stop pitch vol;
#X obj 19 475 switchdelay 2000;
#X floatatom 231 494 5 0 0 0 - - -;
#X obj 245 478 print;
#X connect 0 0 46 0;
#X connect 1 0 42 0;
#X connect 1 0 43 0;
#X connect 2 0 9 0;
#X connect 5 0 4 0;
#X connect 7 0 8 0;
#X connect 8 0 32 1;
#X connect 9 1 10 0;
#X connect 10 0 14 1;
#X connect 11 0 12 0;
#X connect 12 0 13 1;
#X connect 13 0 11 0;
#X connect 13 0 28 0;
#X connect 14 0 7 0;
#X connect 15 0 3 0;
#X connect 16 0 17 0;
#X connect 16 0 17 1;
#X connect 17 0 18 0;
#X connect 17 0 18 1;
#X connect 18 0 15 1;
#X connect 19 0 35 0;
#X connect 19 0 47 0;
#X connect 20 0 35 0;
#X connect 20 0 47 0;
#X connect 21 0 40 0;
#X connect 22 0 21 0;
#X connect 23 0 11 1;
#X connect 24 0 25 0;
#X connect 24 1 12 0;
#X connect 25 0 26 1;
#X connect 26 0 32 0;
#X connect 27 0 33 1;
#X connect 28 0 14 0;
#X connect 28 1 29 0;
#X connect 29 0 30 0;
#X connect 29 0 27 1;
#X connect 30 0 31 1;
#X connect 31 0 33 2;
#X connect 32 0 27 0;
#X connect 32 0 31 0;
#X connect 33 0 15 0;
#X connect 35 0 16 0;
#X connect 35 0 49 0;
#X connect 36 0 35 1;
#X connect 37 0 38 0;
#X connect 38 0 26 0;
#X connect 38 1 13 0;
#X connect 38 1 44 0;
#X connect 40 0 41 0;
#X connect 40 1 37 0;
#X connect 41 0 33 0;
#X connect 42 0 40 0;
#X connect 42 1 24 0;
#X connect 45 0 20 0;
#X connect 45 1 5 0;
#X connect 46 0 45 0;
#X connect 46 1 19 0;
#X connect 46 2 23 0;
#X connect 46 2 34 0;
#X connect 46 2 40 1;
#X connect 46 3 20 1;
#X connect 47 0 6 0;
#X connect 47 0 22 0;
