#N canvas 0 15 610 716 10;
#N canvas 0 15 610 716 no1------------ 0;
#X msg 164 200 stop;
#X msg 341 235 rec;
#X msg 377 234 stop;
#X obj 160 462 outlet~;
#X obj 316 184 inlet;
#X obj 485 186 inlet~;
#X obj 164 171 route 0 1;
#X obj 165 150 inlet;
#X obj 317 205 route 0 1;
#X obj 244 145 inlet pi;
#X msg 199 232 pitch \$1 \, play;
#X obj 331 355 inlet fade;
#N canvas 0 15 610 695 onset_thing 0;
#X obj 177 51 inlet;
#X obj 366 33 inlet~;
#X obj 253 217 timer;
#X obj 263 77 inlet;
#X obj 171 504 outlet;
#X obj 204 159 unpack f f f;
#X obj 238 182 t f b;
#X obj 238 240 -;
#X obj 274 335 div;
#X obj 274 360 +;
#X obj 238 289 t f f b;
#X obj 238 335 mod;
#X obj 204 430 pack f f f;
#X msg 230 135 0 400 4;
#X obj 280 182 spigot;
#X obj 261 97 t f f b;
#X msg 300 240 0;
#X obj 235 388 - 50;
#X text 273 387 a bit before...;
#X obj 557 115 inlet sens;
#X obj 293 306 samp2ms \$3;
#X obj 458 342 outlet;
#X obj 365 158 bonk~;
#X obj 392 183 b;
#X msg 403 86 22;
#X floatatom 555 185 5 0 0 0 - - -;
#X obj 557 135 * -70;
#X obj 558 159 + 90;
#X msg 399 113 thresh 11 \$1;
#X obj 171 136 either;
#X connect 0 0 29 0;
#X connect 1 0 22 0;
#X connect 2 0 7 1;
#X connect 3 0 15 0;
#X connect 5 0 12 0;
#X connect 5 1 6 0;
#X connect 5 2 9 1;
#X connect 6 0 7 0;
#X connect 6 1 14 0;
#X connect 7 0 10 0;
#X connect 8 0 9 0;
#X connect 9 0 12 2;
#X connect 10 0 11 0;
#X connect 10 1 8 0;
#X connect 10 2 20 0;
#X connect 11 0 17 0;
#X connect 12 0 4 0;
#X connect 13 0 5 0;
#X connect 14 0 2 1;
#X connect 15 0 29 1;
#X connect 15 1 14 1;
#X connect 15 2 16 0;
#X connect 16 0 7 1;
#X connect 17 0 12 1;
#X connect 19 0 26 0;
#X connect 20 0 8 1;
#X connect 20 0 11 1;
#X connect 22 1 23 0;
#X connect 23 0 2 0;
#X connect 23 0 21 0;
#X connect 24 0 28 0;
#X connect 26 0 27 0;
#X connect 27 0 28 0;
#X connect 27 0 25 0;
#X connect 28 0 22 0;
#X connect 29 0 4 0;
#X connect 29 1 5 0;
#X restore 308 302 pd onset_thing;
#X obj 308 265 multibuf_rec3 \$0-t \$2 \$3;
#X obj 159 391 multibuf_play3 \$0-t \$2 \$3;
#X obj 198 209 0.9;
#X obj 452 138 inlet onset_sens;
#X obj 415 114 inlet onset;
#X obj 472 355 outlet;
#X obj 234 193 route vol;
#X msg 228 267 vol \$1;
#X connect 0 0 14 0;
#X connect 1 0 13 1;
#X connect 2 0 13 1;
#X connect 4 0 8 0;
#X connect 5 0 12 2;
#X connect 5 0 13 0;
#X connect 6 0 0 0;
#X connect 6 1 15 0;
#X connect 6 2 19 0;
#X connect 7 0 6 0;
#X connect 8 0 2 0;
#X connect 8 1 1 0;
#X connect 9 0 15 1;
#X connect 10 0 14 0;
#X connect 11 0 14 2;
#X connect 12 0 14 1;
#X connect 12 1 18 0;
#X connect 13 0 12 0;
#X connect 14 0 13 1;
#X connect 14 1 3 0;
#X connect 15 0 10 0;
#X connect 16 0 12 3;
#X connect 17 0 12 1;
#X connect 19 0 20 0;
#X connect 20 0 14 0;
#X restore 129 403 pd no1------------;
#X obj 101 116 cnv 15 200 124 empty empty empty 20 12 0 14 -233017
-66577 0;
#X obj 223 369 inlet~;
#X obj 129 477 outlet~;
#X obj 269 209 tgl 30 0 empty empty rec 0 7 0 10 -258699 -262144 -262144
0 1;
#X obj 111 162 hsl 180 20 -2 0.999 0 0 empty empty pitch 2 10 0 10
-204786 -1 -1 15519 1;
#X obj 108 183 nbx 10 14 -1e+37 1e+37 0 0 empty empty empty 0 -6 0
12 -204786 -258113 -1 0.594604 256;
#X obj 254 185 tgl 10 0 empty empty snap 12 4 0 10 -262144 -1 -1 1
1;
#N canvas 0 15 610 695 snap 0;
#X obj 165 46 inlet;
#X obj 165 572 outlet;
#X obj 242 55 inlet;
#X floatatom 632 328 5 0 0 0 - - -;
#X obj 196 149 t a a;
#X obj 195 317 *;
#X obj 224 225 > 0;
#X obj 225 244 * 2;
#X obj 226 266 - 1;
#N canvas 0 15 610 716 snap2 0;
#X obj 186 88 inlet;
#X obj 196 462 outlet;
#X obj 188 223 int;
#X obj 186 181 ftom;
#X obj 187 249 mtof;
#X obj 187 202 + 0.5;
#X obj 190 136 * 220;
#X obj 186 273 / 220;
#X text 226 137 incoming values multiplied \, so (int(f) == f && int(m)
== m) (well \, fractions also: 1/2 \, 1/4 \, 1/8 ... );
#X text 164 34 snaps current value to an well-tempered halftone where
octaves are pow(2 \, x);
#X connect 0 0 6 0;
#X connect 2 0 4 0;
#X connect 3 0 5 0;
#X connect 4 0 7 0;
#X connect 5 0 2 0;
#X connect 6 0 3 0;
#X connect 7 0 1 0;
#X restore 195 200 pd snap2;
#X obj 166 72 f;
#X obj 207 77 t b f;
#X obj 197 173 abs;
#X obj 165 104 either;
#X connect 0 0 10 0;
#X connect 2 0 11 0;
#X connect 4 0 12 0;
#X connect 4 1 6 0;
#X connect 5 0 1 0;
#X connect 6 0 7 0;
#X connect 7 0 8 0;
#X connect 8 0 5 1;
#X connect 9 0 5 0;
#X connect 10 0 13 0;
#X connect 11 0 10 0;
#X connect 11 1 13 1;
#X connect 12 0 9 0;
#X connect 13 0 1 0;
#X connect 13 1 4 0;
#X restore 108 70 pd snap;
#X obj 107 128 tgl 30 0 empty empty play 0 -6 0 10 -4034 -1 -1 0 1
;
#X obj 375 104 inlet;
#X obj 375 126 route play rec pitch snap;
#X obj 265 9 r OSC;
#X obj 266 34 OSCroute \$1;
#X obj 253 545 multibuf-buf2 \$0-t \$2 \$3;
#X obj 107 200 tgl 20 0 empty empty snap-to-onsets 24 9 0 10 -191407
-1 -1 0 1;
#X obj 110 222 hsl 128 15 0 1 0 0 empty empty sensitivity 22 -6 0 10
-191407 -1 -1 3810 1;
#X obj 369 231 loadbang;
#X obj 369 271 1;
#X obj 225 207 bng 15 250 50 0 empty empty empty 0 -6 0 10 -191407
-1 -1;
#X obj 163 142 hsl 128 15 1 2000 1 0 empty empty fade 2 7 0 10 -204800
-1 -1 0 1;
#X obj 396 271 0.6;
#X obj 335 305 0.3;
#X msg 415 487 vol \$1;
#X obj 267 57 OSCroute /play /rec /pitch /snap /vol /fade;
#X connect 0 0 3 0;
#X connect 0 1 19 0;
#X connect 2 0 0 6;
#X connect 4 0 0 2;
#X connect 5 0 6 0;
#X connect 5 0 8 0;
#X connect 7 0 8 1;
#X connect 8 0 6 0;
#X connect 8 0 0 1;
#X connect 9 0 0 0;
#X connect 10 0 11 0;
#X connect 10 0 24 0;
#X connect 11 0 9 0;
#X connect 11 1 4 0;
#X connect 11 2 5 0;
#X connect 11 3 7 0;
#X connect 12 0 13 0;
#X connect 13 0 24 0;
#X connect 15 0 0 4;
#X connect 16 0 0 5;
#X connect 17 0 18 0;
#X connect 17 0 21 0;
#X connect 17 0 22 0;
#X connect 18 0 20 0;
#X connect 18 0 7 0;
#X connect 19 0 16 0;
#X connect 20 0 0 3;
#X connect 21 0 5 0;
#X connect 22 0 16 0;
#X connect 23 0 0 0;
#X connect 24 0 9 0;
#X connect 24 1 4 0;
#X connect 24 2 5 0;
#X connect 24 3 7 0;
#X connect 24 4 23 0;
#X connect 24 5 20 0;
#X coords 0 -1 1 1 202 142 1 100 100;
