#N canvas 0 15 764 716 10;
#N canvas 0 15 764 716 1126-buffers 0;
#X restore 566 48 pd \$0-buffers;
#X obj 123 15 loadbang;
#X obj 155 72 0;
#X obj 182 72 + 1;
#X obj 143 173 t f b b b;
#X obj 200 341 \$0;
#X obj 200 362 makefilename pd-%d-buffers;
#X obj 26 330 symbol;
#X obj 123 39 t b b;
#X obj 273 82 sel 0;
#X obj 150 137 sel 5;
#X obj 156 94 t f f;
#X obj 103 199 t b f f;
#X obj 105 388 pack s f s f;
#X obj 127 351 * 20;
#X msg 104 411 \; \$3 obj 0 \$4 table \$1 \$2;
#X obj 273 63 \$2;
#X msg 226 21 0;
#X obj 39 55 bng 15 250 50 0 empty empty empty 0 -6 0 8 -262144 -1
-1;
#X obj 30 224 sprintf %d-%s;
#X obj 172 199 symbol \$1;
#X obj 186 279 + 1000;
#X text 232 311 To avoid clicks (extra space);
#X obj 184 252 \$3;
#X connect 1 0 8 0;
#X connect 2 0 3 0;
#X connect 2 0 11 0;
#X connect 2 0 10 0;
#X connect 3 0 2 1;
#X connect 4 0 12 0;
#X connect 4 1 20 0;
#X connect 4 2 23 0;
#X connect 4 3 5 0;
#X connect 5 0 6 0;
#X connect 6 0 13 2;
#X connect 7 0 13 0;
#X connect 8 0 2 0;
#X connect 8 1 16 0;
#X connect 9 1 10 1;
#X connect 10 1 4 0;
#X connect 12 0 2 0;
#X connect 12 1 19 0;
#X connect 12 2 14 0;
#X connect 13 0 15 0;
#X connect 14 0 13 3;
#X connect 16 0 9 0;
#X connect 17 0 2 1;
#X connect 18 0 8 0;
#X connect 19 0 7 0;
#X connect 20 0 19 1;
#X connect 21 0 13 1;
#X connect 23 0 21 0;
