#N canvas 0 15 610 716 10;
#X obj 112 -25 inlet;
#X obj 112 64 list split 1;
#X obj 208 189 list prepend \$1;
#X obj 227 86 loadbang;
#X obj 227 109 symbol \$1;
#X obj 112 161 makefilename;
#X obj 112 264 list trim;
#X obj 112 288 outlet;
#X obj 112 188 list append;
#X msg 227 130 set \$1%s;
#X obj 139 31 list split 2;
#X obj 295 84 inlet;
#X obj 112 0 t a a;
#X text 209 -19 Prepend one or many OSC 'directories' to a string or
OSC path.;
#X connect 0 0 12 0;
#X connect 1 0 5 0;
#X connect 1 1 8 1;
#X connect 2 0 6 0;
#X connect 3 0 4 0;
#X connect 4 0 9 0;
#X connect 5 0 8 0;
#X connect 6 0 7 0;
#X connect 8 0 6 0;
#X connect 9 0 5 0;
#X connect 10 2 2 0;
#X connect 11 0 2 1;
#X connect 11 0 4 0;
#X connect 12 0 1 0;
#X connect 12 1 10 0;
