#N canvas 0 15 815 716 10;
#X obj 242 179 inlet;
#X obj 244 254 /;
#X obj 324 216 loadbang;
#X obj 326 238 samplerate~;
#X obj 328 262 / 1000;
#X obj 248 281 outlet;
#X obj 243 229 f \$1;
#X connect 0 0 6 0;
#X connect 1 0 5 0;
#X connect 2 0 3 0;
#X connect 3 0 4 0;
#X connect 4 0 1 1;
#X connect 6 0 1 0;
