#N canvas 0 15 623 536 10;
#X obj 82 10 inlet;
#X obj 100 126 -;
#X obj 83 212 /;
#X obj 100 147 sel 0;
#X obj 83 260 t f b;
#X obj 108 314 -;
#X obj 83 313 *;
#X msg 108 297 \$1 \$2;
#X msg 100 107 \$2 \$1;
#X obj 82 396 outlet;
#X obj 100 87 pack \$1 \$2;
#X obj 83 36 t f b;
#X obj 108 279 pack \$4 \$3;
#X obj 84 337 + \$3;
#X obj 83 235 - \$1;
#X text 165 121 adjust number stream between \$1 and \$2 to lie between
\$3 and \$4.;
#X obj 129 232 /;
#X obj 128 171 t f b f;
#X obj 131 206 \$1;
#X obj 136 12 inlet min_in;
#X obj 242 312 inlet min_out;
#X obj 224 23 inlet max_in;
#X obj 276 339 inlet max_out;
#X obj 83 369 within \$3 \$4;
#X connect 0 0 11 0;
#X connect 1 0 3 0;
#X connect 2 0 14 0;
#X connect 3 1 17 0;
#X connect 4 0 6 0;
#X connect 4 1 12 0;
#X connect 5 0 6 1;
#X connect 6 0 13 0;
#X connect 7 0 5 0;
#X connect 8 0 1 0;
#X connect 10 0 8 0;
#X connect 11 0 2 0;
#X connect 11 1 10 0;
#X connect 12 0 7 0;
#X connect 13 0 23 0;
#X connect 14 0 4 0;
#X connect 16 0 14 1;
#X connect 17 0 2 1;
#X connect 17 1 18 0;
#X connect 17 2 16 1;
#X connect 18 0 16 0;
#X connect 19 0 10 0;
#X connect 19 0 18 1;
#X connect 20 0 12 1;
#X connect 20 0 13 1;
#X connect 21 0 10 1;
#X connect 22 0 12 0;
#X connect 23 0 9 0;
