#N canvas 0 15 610 716 10;
#X text 237 655 Johannes Burström 2007/2008;
#X obj 14 507 dac~ 1 2 3;
#X obj 38 578 trighelper 3 1 0;
#X obj 265 318 r \$0-key;
#N canvas 0 15 610 716 stuff 0;
#X obj 139 84 mousetrap;
#X obj 206 84 s \$0-key;
#X msg 181 132 /no3/play \$1;
#X obj 139 26 inlet;
#X obj 139 106 route 1 2 3;
#X msg 161 152 /no2/play \$1;
#X msg 141 172 /no2/play \$1;
#X obj 145 254 s OSC;
#X msg 318 69 \; pd dsp 1;
#X obj 139 52 t a a a;
#X obj 291 25 inlet;
#X obj 291 49 t a a;
#X msg 291 135 /no1/rec \$1 \, /no2/rec \$1 \, /no3/rec \$1;
#X connect 0 0 4 0;
#X connect 0 1 1 0;
#X connect 2 0 7 0;
#X connect 3 0 9 0;
#X connect 4 0 6 0;
#X connect 4 1 5 0;
#X connect 4 2 2 0;
#X connect 5 0 7 0;
#X connect 6 0 7 0;
#X connect 9 0 0 0;
#X connect 10 0 11 0;
#X connect 11 0 12 0;
#X connect 11 1 8 0;
#X connect 12 0 7 0;
#X restore 368 48 pd stuff;
#X obj 368 28 tgl 15 0 empty empty Open 0 -6 0 10 -262144 -1 -1 0 1
;
#X obj 69 335 adc~ 3;
#X obj 238 168 keyhelper 119 115;
#X obj 238 149 r \$0-key;
#X obj 208 -31 r \$0-key;
#X obj 42 165 adc~ 2;
#X obj 12 -15 adc~ 1;
#X obj 208 -12 keyhelper 113 97;
#X obj 265 337 keyhelper 101 100;
#X obj 412 15 tgl 30 0 empty empty START 0 -6 0 10 -258113 -1 -1 0
1;
#X obj 13 8 multibuf3 /no1 10 480000;
#X obj 43 188 multibuf3 /no2 10 480000;
#X obj 70 358 multibuf3 /no3 10 480000;
#X connect 3 0 13 0;
#X connect 5 0 4 0;
#X connect 6 0 17 0;
#X connect 7 0 16 2;
#X connect 8 0 7 0;
#X connect 9 0 12 0;
#X connect 10 0 16 0;
#X connect 11 0 15 0;
#X connect 12 0 15 2;
#X connect 13 0 17 2;
#X connect 14 0 4 1;
#X connect 15 0 1 0;
#X connect 15 1 12 1;
#X connect 16 0 1 1;
#X connect 16 1 7 1;
#X connect 17 0 1 2;
#X connect 17 1 13 1;
