#N canvas 0 15 610 716 10;
#X obj 178 186 multibuf3 /test 15 88192;
#X obj 125 390 dac~;
#X obj 117 135 adc~;
#X obj 410 240 print;
#X obj 372 160 trighelper 3 1 0;
#X connect 0 0 1 0;
#X connect 0 0 1 1;
#X connect 2 0 0 0;
#X connect 2 1 1 1;
#X connect 2 1 1 0;
#X connect 4 0 0 1;
