#N canvas 0 15 618 724 10;
#X obj 152 238 timer;
#X obj 153 283 sel 1;
#X obj 152 260 > 50;
#X obj 153 213 t b b a;
#X obj 194 466 pack f f;
#X msg 276 306 \$2;
#X obj 276 389 autoscale 2000 1;
#X obj 203 337 f;
#X obj 231 337 + 1;
#X obj 260 340 mod 2;
#X obj 152 335 1;
#X msg 194 487 /fade \$1 \, /play \$1;
#X obj 194 554 outlet;
#X obj 106 184 bonk~;
#X obj 106 155 adc~ \$1;
#X text 174 593 args \; 1: adc channel \; 2: retrig or toggle (0/1)
\; 3: velocity controls fadetime (0/1);
#X msg 152 420 /play \$1;
#X obj 151 306 either \$2;
#X obj 152 383 either \$3;
#X connect 0 0 2 0;
#X connect 1 0 17 0;
#X connect 2 0 1 0;
#X connect 3 0 0 0;
#X connect 3 1 0 1;
#X connect 3 2 5 0;
#X connect 4 0 11 0;
#X connect 5 0 6 0;
#X connect 6 0 4 1;
#X connect 7 0 8 0;
#X connect 7 0 18 0;
#X connect 8 0 9 0;
#X connect 9 0 7 1;
#X connect 10 0 18 0;
#X connect 11 0 12 0;
#X connect 13 1 3 0;
#X connect 14 0 13 0;
#X connect 16 0 12 0;
#X connect 17 0 10 0;
#X connect 17 1 7 0;
#X connect 18 0 16 0;
#X connect 18 1 4 0;
